<svg width="181" height="202" viewBox="0 0 181 202" fill="none" xmlns="http://www.w3.org/2000/svg">
<g id="Group 316">
<path id="0.2ear2" d="M116.13 59.8214C114.188 63.8506 115.227 67.7015 118.079 68.0178C121.969 68.4492 124.574 64.7824 126.09 59.8214C127.083 56.5709 126.493 53.8131 124.994 52.4798C123.383 51.0472 120.707 51.3318 118.854 52.4327C116.796 53.655 116.13 56.3154 116.13 59.8214Z" fill="#FCB297"/>
<path id="white-tshrt" d="M80.404 173.277L83.4353 133.805L84.0849 119.785L80.1874 117.412L77.8057 110.078L69.5779 100.804L67.8471 94.9792L91.2315 101.881L113.1 94.1164L116.78 95.6267L116.132 97.7835L114.832 99.9405L112.017 104.039L105.305 110.078L104.006 113.961L103.139 118.059L99.6751 119.137L97.7264 121.079L100.325 148.041L102.706 173.277L80.404 173.277Z" fill="white" fill-opacity="0.44"/>
<path id="Neck" d="M113.099 94.117C109.865 97.7246 106.555 100.255 102.105 101.938C95.1698 104.561 87.3434 104.413 80.3363 101.988C74.9225 100.114 71.8362 97.5954 69.5779 95.6269C89.2814 91.313 63.5153 69.5278 94.6945 76.2153C113.748 77.9403 93.6119 88.9396 113.099 94.117Z" fill="#FCB297"/>
<path id="11 Ellipse 63" d="M102.922 80.3125C101.623 82.038 100.757 83.1753 98.8084 84.4107C96.4266 85.9206 94.6846 87.1389 90.5805 86.7833C88.5368 86.6063 87.1495 86.3203 86.0594 85.9551C83.2854 85.0259 80.6702 83.301 79.0621 80.857C78.7403 80.368 78.4016 79.7743 78.0222 79.0183L84.7344 80.9596L91.0136 81.8223L97.2927 81.391L100.324 80.9596L102.922 80.3125Z" fill="#D67D65" fill-opacity="0.74"/>
<path id="1 face" d="M64.8143 48.1739C64.8143 66.9394 71.9595 82.9136 92.7455 82.9136C109.851 82.9136 119.161 64.8642 119.161 48.1867C121.11 19.0678 109.418 12.1659 94.0448 12.1659C72.8258 9.57758 64.8143 29.4085 64.8143 48.1739Z" fill="#FAAE93"/>
<path id="10 Ellipse 56" d="M109.851 19.2707C96.8596 26.173 90.797 34.1537 76.723 37.3891C65.8971 38.0362 60.7013 65.2145 60.2675 28.3299C60.2675 17.3704 71.0928 0.935837 89.2806 0.0730856C101.839 -0.522624 126.956 2.23078 109.851 19.2707Z" fill="#343549"/>
<path id="8 Polygon 6" d="M108.552 18.6236L111.15 17.9766L111.367 19.4864L109.418 24.8788L106.387 29.1927L105.521 30.2712L103.355 32.6438L100.324 34.8008L97.9423 35.8793L93.8284 37.6048L86.8997 38.4676L79.9709 38.2519L85.817 35.6636L91.2301 32.6438L95.7771 28.977L99.6745 23.8003L108.552 18.6236Z" fill="#343549"/>
<path id="9 Polygon 7" d="M112.449 11.9371L115.481 10.8586L118.512 12.7999L121.327 15.1725L122.035 15.8782C123.849 17.6855 125.235 19.8767 126.09 22.2905V22.2905V22.2905C127.236 25.0008 127.888 27.894 128.016 30.8337L128.039 31.3497V31.3497C127.896 37.4638 126.462 43.4785 123.83 48.9988L123.709 49.2524L123.274 50.6376C122.888 51.8669 121.749 52.7035 120.461 52.7035V52.7035L119.563 52.6707C119.037 52.6516 118.708 52.0945 118.945 51.625V51.625L118.729 47.5268V43.2129L117.429 32.2125L116.13 27.0358L113.965 22.2905L111.15 19.0551L110.284 15.8196L112.449 11.9371Z" fill="#343549"/>
<path id="6eyebro" d="M84.0849 41.2716C84.3014 42.5657 81.2701 41.4873 79.5379 41.4873C76.0668 41.4873 73.4753 43.4285 73.2588 41.4873C73.4753 40.1931 76.2901 38.0361 79.5379 38.0361C83.2188 38.6832 84.3014 40.1931 84.0849 41.2716Z" fill="#343348"/>
<path id="7 eyebro2" d="M113.965 46.8798C113.532 48.174 111.367 46.017 109.711 45.3176C106.515 43.9677 103.343 45.3898 103.711 43.4714C104.302 42.2985 107.469 40.8403 110.733 42.0202C113.965 44.2915 114.491 45.913 113.965 46.8798Z" fill="#343348"/>
<path id="2 eyes1" d="M80.2993 50.7622C80.2993 52.3108 79.0908 53.7819 78.1341 53.7819C77.1774 53.7819 76.5066 52.3694 76.5066 50.8207C76.5066 49.2721 77.6105 47.7424 78.5671 47.7424C79.5238 47.7424 80.5158 49.0366 80.2993 50.7622Z" fill="#23232B"/>
<path id="3 eyes" d="M108.873 53.9978C108.873 55.5464 107.664 57.0175 106.707 57.0175C105.751 57.0175 105.08 55.6049 105.08 54.0563C105.08 52.5077 106.184 50.978 107.14 50.978C108.097 50.978 109.089 52.2722 108.873 53.9978Z" fill="#222329"/>
<path id="4 nose" d="M94.3447 58.5273C95.2107 64.3511 90.2306 63.2726 89.573 62.5583C88.9314 61.1156 92.6123 62.8412 92.3878 58.8915C92.1632 54.9419 91.1258 53.782 91.9629 53.782C92.8 53.782 93.6951 55.7232 94.3447 58.5273Z" fill="#E08B72"/>
<path id="5 lips" d="M95.801 68.2335C94.7184 71.0375 92.3368 72.9786 88.6559 72.5474C84.4487 72.0545 83.2429 68.2335 83.4594 65.8608C83.8924 65.8609 86.4906 67.155 89.955 67.8021C93.4194 68.2335 95.8788 68.032 95.801 68.2335Z" fill="#C56161" fill-opacity="0.81"/>
<path id=" jacket right" d="M101.84 173.277L97.2406 122.464C97.1364 121.313 97.5501 120.175 98.3699 119.359V119.359C98.5172 119.212 98.6835 119.085 98.8644 118.982L100.107 118.275L103.355 117.412V117.412C103.355 115.693 103.567 113.981 103.985 112.313L104.005 112.235V112.235C104.569 110.127 105.755 108.235 107.408 106.805L109.291 105.176C111.802 103.004 113.832 100.335 115.253 97.3385L116.78 94.1169L133.019 102.098L133.25 102.243C135.83 103.867 138.222 105.771 140.381 107.921V107.921L140.796 108.335C141.672 109.208 142.475 110.152 143.195 111.157V111.157L146.01 114.608L146.211 114.922C148.091 117.866 149.623 121.018 150.774 124.314V124.314L154.022 128.412L154.118 128.625C154.768 130.048 155.104 131.594 155.104 133.158V133.158L154.888 135.099L154.391 136.254C154.289 136.49 154.213 136.736 154.162 136.988L154.112 137.235C153.911 138.24 153.963 139.279 154.266 140.259V140.259C154.534 141.127 154.945 141.945 155.481 142.679L156.403 143.943V143.943C158.848 146.919 159.691 150.89 158.665 154.595L158.568 154.943L159.002 160.982L160.517 173.277L101.84 173.277Z" fill="#2F66F3"/>
<path id="Line 280" d="M136.129 121.07L137.297 135.513L138.787 148.242L142.112 173.254" stroke="#6689E2" stroke-width="2"/>
<rect id="Rectangle 322" x="0.0693799" y="1.40981" width="8.17924" height="4.60568" rx="2" transform="matrix(0.742285 0.670084 -0.672906 0.739728 127.097 162.092)" fill="#2F66F3" stroke="#C4C4C4" stroke-width="2"/>
<ellipse id="Ellipse 55" cx="107.686" cy="166.591" rx="2.59827" ry="2.80404" fill="#C4C4C4"/>
<ellipse id="Ellipse 56" cx="105.304" cy="145.452" rx="2.81479" ry="2.80404" fill="#C4C4C4"/>
<path id="wrist" d="M9.38474 55.7231L21.51 57.4487V67.155L7.43604 68.6649L9.38474 55.7231Z" fill="#FCB297"/>
<ellipse id="Ellipse 57" cx="102.273" cy="123.883" rx="2.81479" ry="2.80404" fill="#C4C4C4"/>
<path id="Polygon 6" d="M26.7065 65.0223C28.0057 73.1946 22.3761 73.626 27.4634 92.0083C27.4634 92.0083 28.4387 91.313 29.3048 91.7444C30.1149 92.1479 30.1709 93.4699 30.1709 93.4699L49.8744 94.117H67.8458C67.8458 94.117 68.9284 102.098 79.1049 109C80.4041 109.881 76.5067 116.981 84.0849 118.922C85.6006 119.31 80.6206 173.277 80.6206 173.277H42.5126L46.1935 140.492L19.1282 125.177L16.1453 123.486C9.03953 119.456 3.80943 112.787 1.58996 104.926V104.926C1.58996 104.926 0.553901 98.6241 0.290828 94.5484C-0.363535 84.4107 0.290828 83.3323 0.290828 83.3323L0.940395 70.4147L1.58996 69.5519L2.8891 68.9048L6.78641 67.3708L13.0656 65.6694L16.8547 65.2259L20.6438 64.7825H24.3248H24.9416C25.538 64.7825 26.1317 64.8631 26.7065 65.0223V65.0223Z" fill="#2F66F3"/>
<g id="Group 314">
<rect id="Rectangle 327" width="0.865712" height="23.4531" rx="0.432856" transform="matrix(0.941609 -0.336707 0.338998 0.940787 56.6958 101.626)" fill="#C4C4C4" fill-opacity="0.37"/>
<rect id="Rectangle 328" width="0.864487" height="19.3901" rx="0.432243" transform="matrix(0.719027 0.694982 -0.697727 0.716363 77.9104 109.431)" fill="#C4C4C4" fill-opacity="0.37"/>
</g>
<g id="Group 315">
<rect id="Rectangle 327_2" width="0.790115" height="24.9671" rx="0.395058" transform="matrix(-0.918997 -0.395376 -0.257108 0.966018 125.224 98.9587)" fill="#C4C4C4" fill-opacity="0.37"/>
<rect id="Rectangle 328_2" width="0.866703" height="17.668" rx="0.433352" transform="matrix(-0.526376 0.849678 0.709882 0.705004 106.464 109.481)" fill="#C4C4C4" fill-opacity="0.37"/>
<rect id="Rectangle 324" x="71.7432" y="166.375" width="6.49567" height="2.15695" rx="1.07862" fill="#C4C4C4"/>
<rect id="Rectangle 325" x="75.2075" y="146.099" width="6.49567" height="2.15695" rx="1.07862" fill="#C4C4C4"/>
<rect id="Rectangle 326" x="77.3726" y="122.804" width="6.49567" height="2.15695" rx="1.07862" fill="#C4C4C4"/>
</g>
<rect id="Rectangle 329" width="0.866077" height="19.8442" rx="0.433039" transform="matrix(0.998187 0.0601954 -0.0606562 0.998159 48.2632 116.333)" fill="#6689E2"/>
<path id="Rectangle 330" d="M18.0775 105.919C17.8112 105.707 17.7436 105.331 17.9193 105.039L21.5099 99.0778L25.7195 93.0871C25.9093 92.8169 26.2763 92.7388 26.5598 92.9082V92.9082C26.873 93.0954 26.9609 93.5082 26.7511 93.8067L22.5925 99.7249L19.0928 105.729C18.8834 106.088 18.4027 106.178 18.0775 105.919V105.919Z" fill="#6689E2"/>
<path id="Rectangle 331" d="M24.1401 110.299C23.8252 110.191 23.6509 109.855 23.7441 109.536L25.8337 102.376L28.5239 95.0088C28.6372 94.6985 28.9712 94.528 29.289 94.6182V94.6182C29.6404 94.718 29.8328 95.0947 29.7075 95.4379L27.048 102.721L24.942 109.884C24.8417 110.225 24.4766 110.414 24.1401 110.299V110.299Z" fill="#6689E2"/>
<path id="Ellipse 58" d="M26.7065 49.8997C33.4186 57.4489 23.0256 60.2529 18.2621 59.8216C9.81772 61.1157 7.00293 55.3794 7.00293 49.8997C7.6525 44.5071 8.08554 34.8008 17.1795 39.5461C30.3873 36.9578 28.0056 44.5071 26.7065 49.8997Z" fill="#FCB297"/>
<path id="Rectangle 332" d="M9.60132 28.4475C9.60132 28.2322 9.677 28.0238 9.81512 27.8587V27.8587C10.3134 27.263 11.1742 27.1253 11.8334 27.5358L12.0067 27.6437C12.2667 27.8055 12.4437 28.0723 12.4916 28.3748L14.3648 40.1932L9.60132 40.6246V28.4475Z" fill="#FCB297"/>
<path id="Rectangle 333" d="M16.797 25.4171C16.9014 24.6672 17.3404 24.005 17.9906 23.6166V23.6166C19.0582 22.9789 20.4322 23.6137 20.6372 24.8395L20.6438 24.8787L19.5607 40.1925L14.7972 39.7829L16.797 25.4171Z" fill="#FCB297"/>
<path id="Rectangle 334" d="M25.307 24.3046C25.3731 24.1148 25.4815 23.9425 25.624 23.8005V23.8005L26.2244 23.5245C27.3405 23.0114 28.638 23.6963 28.8403 24.9053V24.9053C28.8611 25.03 28.8533 25.1578 28.8175 25.279L24.5415 39.762L19.9943 39.5461L25.307 24.3046Z" fill="#FCB297"/>
<path id="Rectangle 335" d="M32.3549 28.8274L32.6082 28.6561L33.0623 28.5438C34.3494 28.2255 35.5859 29.2137 35.5541 30.5353V30.5353L27.1394 46.6639L23.8915 42.5657L32.3549 28.8274Z" fill="#FCB297"/>
<path id="Ellipse 59" d="M15.9061 38.108C15.8672 38.2735 15.7948 38.4294 15.693 38.5669C15.5913 38.7045 15.4622 38.8209 15.3131 38.9095C15.164 38.9981 14.9978 39.0573 14.8241 39.0835C14.6504 39.1098 14.4724 39.1026 14.3005 39.0625C14.1286 39.0224 13.966 38.95 13.8221 38.8496C13.6781 38.7492 13.5556 38.6227 13.4616 38.4774C13.3675 38.332 13.3037 38.1706 13.2739 38.0023C13.244 37.8341 13.2487 37.6623 13.2876 37.4969L13.8777 37.6346C13.8563 37.7255 13.8538 37.8198 13.8701 37.9122C13.8865 38.0046 13.9216 38.0933 13.9732 38.1732C14.0249 38.253 14.0922 38.3225 14.1713 38.3777C14.2503 38.4328 14.3396 38.4725 14.4341 38.4946C14.5285 38.5166 14.6262 38.5206 14.7217 38.5061C14.8171 38.4917 14.9084 38.4592 14.9903 38.4105C15.0722 38.3619 15.1431 38.2979 15.199 38.2224C15.2549 38.1468 15.2947 38.0612 15.316 37.9703L15.9061 38.108Z" fill="#FCB297"/>
<rect id="Rectangle 323" x="-1.41683" y="-0.0153512" width="8.17775" height="4.60665" rx="2" transform="matrix(-0.716063 0.698036 -0.70077 -0.713387 64.4722 167.447)" fill="#2F66F3" stroke="#C4C4C4" stroke-width="2"/>
<path id="Ellipse 60" d="M21.4415 37.7806C21.3521 38.0659 21.236 38.3398 21.0996 38.5867C20.9633 38.8336 20.8094 39.0486 20.6468 39.2194C20.4843 39.3903 20.3162 39.5137 20.1522 39.5825C19.9881 39.6513 19.8314 39.6643 19.6909 39.6206C19.5504 39.5769 19.4288 39.4774 19.3332 39.3279C19.2376 39.1783 19.1698 38.9816 19.1336 38.749C19.0975 38.5164 19.0937 38.2524 19.1225 37.972C19.1513 37.6917 19.2122 37.4006 19.3015 37.1153L19.7838 37.2652C19.7347 37.4219 19.7013 37.5818 19.6854 37.7358C19.6696 37.8898 19.6717 38.0348 19.6915 38.1626C19.7114 38.2904 19.7487 38.3985 19.8012 38.4806C19.8537 38.5628 19.9205 38.6174 19.9976 38.6414C20.0748 38.6654 20.1609 38.6583 20.251 38.6205C20.3411 38.5827 20.4335 38.5149 20.5228 38.421C20.6121 38.3272 20.6966 38.2091 20.7715 38.0735C20.8464 37.9378 20.9102 37.7874 20.9593 37.6307L21.4415 37.7806Z" fill="#FCB297"/>
<path id="Ellipse 61" d="M27.2019 38.6788C27.0891 38.9558 26.9391 39.2145 26.7606 39.4404C26.582 39.6662 26.3784 39.8546 26.1613 39.995C25.9441 40.1353 25.7178 40.2247 25.4952 40.2582C25.2725 40.2916 25.058 40.2684 24.8637 40.1899C24.6695 40.1114 24.4993 39.9791 24.363 39.8006C24.2267 39.622 24.127 39.4008 24.0694 39.1494C24.0118 38.8981 23.9975 38.6215 24.0274 38.3356C24.0573 38.0497 24.1307 37.76 24.2435 37.483L24.9102 37.7525C24.8482 37.9046 24.8079 38.0638 24.7915 38.2208C24.7751 38.3779 24.7829 38.5298 24.8145 38.6679C24.8462 38.8059 24.901 38.9275 24.9758 39.0255C25.0507 39.1236 25.1442 39.1963 25.2509 39.2394C25.3576 39.2825 25.4754 39.2953 25.5977 39.2769C25.72 39.2585 25.8443 39.2094 25.9636 39.1323C26.0829 39.0552 26.1947 38.9517 26.2928 38.8277C26.3909 38.7036 26.4733 38.5615 26.5352 38.4093L27.2019 38.6788Z" fill="#FCB297"/>
<path id="Rectangle 336" d="M25.4462 52.6919L26.2733 50.978L28.4385 50.3309L29.7379 49.4682L30.8205 48.8211L31.9031 48.174L33.2022 47.5269L34.2848 47.3112C34.2848 47.3112 37.0994 47.7426 37.0994 48.821C37.0994 49.8201 36.3561 50.0788 36.2467 50.1114C36.2375 50.1142 36.2285 50.1152 36.2189 50.1152V50.1152C36.0882 50.1152 35.9615 50.1601 35.8603 50.2424L27.7892 56.8018L25.4462 52.6919Z" fill="#FCB297"/>
<path id="0.1 ear1" d="M66.9795 52.7034C66.9795 57.5875 65.519 61.3312 62.649 61.3312C59.1847 61.3312 56.5864 57.5875 56.5864 52.7034C56.5864 47.8193 58.3186 43.6442 61.783 44.2913C66.3299 44.2913 66.9795 47.8193 66.9795 52.7034Z" fill="#FCB297"/>
</g>
</svg>
